# xmcd
#
# Track frame offsets: 
#        150
#        15110
#        45117
#        65030
#        83076
#        94720
#        112341
#        138029
#        155427
#        176761
#        196521
#        213543
#        234167
#        253948
#
# Disc length: 3658 seconds
#
# Revision: 0
# Processed by: cddbd v1.5.2PL0 Copyright (c) Steve Scherf et al.
# Submitted via: ExactAudioCopy v1.3
#
DISCID=ac0e480e
DTITLE=The Little Red Rooster Blues Band - Hijinx and Tomfoolery
DYEAR=2016
DGENRE=East Coast Blues
TTITLE0=Greasing The Weezer
TTITLE1=Eyes Wide Open
TTITLE2=Back In Your Arms
TTITLE3=27 Dollars
TTITLE4=Bad Toupee
TTITLE5=Day Drinking Daddy
TTITLE6=Hurts My Mind
TTITLE7=She's Terrific
TTITLE8=Just For You
TTITLE9=Shot Me Down
TTITLE10=Can't You See
TTITLE11=Easy Baby
TTITLE12=Honey With Some Money
TTITLE13=Hijinx And Tomfoolery
EXTD=
EXTT0=
EXTT1=
EXTT2=
EXTT3=
EXTT4=
EXTT5=
EXTT6=
EXTT7=
EXTT8=
EXTT9=
EXTT10=
EXTT11=
EXTT12=
EXTT13=
PLAYORDER=
